<svg xmlns="http://www.w3.org/2000/svg" xmlns:xlink="http://www.w3.org/1999/xlink" width="500" zoomAndPan="magnify" viewBox="0 0 375 374.999991" height="500" preserveAspectRatio="xMidYMid meet" version="1.0"><defs><g/><clipPath id="9bf6734517"><rect x="0" width="258" y="0" height="87"/></clipPath></defs><g transform="matrix(1, 0, 0, 1, 59, 159)"><g clip-path="url(#9bf6734517)"><g fill="#f4f6fc" fill-opacity="1"><g transform="translate(0.149926, 64.237903)"><g><path d="M 18.671875 0 L 5.859375 0 L 5.859375 -61.53125 L 26.84375 -61.53125 C 30.644531 -61.53125 34.113281 -60.828125 37.25 -59.421875 C 40.382812 -58.015625 43.09375 -56.140625 45.375 -53.796875 C 47.664062 -51.460938 49.441406 -48.820312 50.703125 -45.875 C 51.972656 -42.9375 52.609375 -39.894531 52.609375 -36.75 C 52.609375 -31.519531 51.460938 -26.828125 49.171875 -22.671875 C 46.890625 -18.515625 43.753906 -15.25 39.765625 -12.875 C 35.773438 -10.507812 31.191406 -9.328125 26.015625 -9.328125 L 18.671875 -9.328125 Z M 18.671875 -20.984375 L 25.6875 -20.984375 C 28.65625 -20.984375 31.171875 -21.628906 33.234375 -22.921875 C 35.304688 -24.210938 36.863281 -25.957031 37.90625 -28.15625 C 38.957031 -30.363281 39.484375 -32.789062 39.484375 -35.4375 C 39.484375 -37.851562 38.972656 -40.160156 37.953125 -42.359375 C 36.929688 -44.566406 35.457031 -46.382812 33.53125 -47.8125 C 31.601562 -49.25 29.238281 -49.96875 26.4375 -49.96875 L 18.671875 -49.96875 Z M 18.671875 -20.984375 "/></g></g></g><g fill="#f4f6fc" fill-opacity="1"><g transform="translate(55.23753, 64.237903)"><g><path d="M 5.859375 -61.53125 L 18.671875 -61.53125 L 18.671875 -38.484375 L 46.90625 -38.484375 L 46.90625 -61.53125 L 59.71875 -61.53125 L 59.71875 0 L 46.90625 0 L 46.90625 -27.015625 L 18.671875 -27.015625 L 18.671875 0 L 5.859375 0 Z M 5.859375 -61.53125 "/></g></g></g><g fill="#f4f6fc" fill-opacity="1"><g transform="translate(120.814099, 64.237903)"><g><path d="M 18.671875 -61.53125 L 18.671875 0 L 5.859375 0 L 5.859375 -61.53125 Z M 18.671875 -61.53125 "/></g></g></g><g fill="#f4f6fc" fill-opacity="1"><g transform="translate(145.343363, 64.237903)"><g><path d="M 20.640625 -27.25 C 15.304688 -27.863281 11.039062 -29.738281 7.84375 -32.875 C 4.65625 -36.007812 3.0625 -40 3.0625 -44.84375 C 3.0625 -47.4375 3.597656 -49.816406 4.671875 -51.984375 C 5.742188 -54.160156 7.160156 -56.046875 8.921875 -57.640625 C 10.679688 -59.242188 12.617188 -60.472656 14.734375 -61.328125 C 16.859375 -62.179688 18.992188 -62.609375 21.140625 -62.609375 C 24.222656 -62.609375 27.164062 -61.988281 29.96875 -60.75 C 32.78125 -59.507812 35.375 -57.484375 37.75 -54.671875 L 27.671875 -47.328125 C 26.847656 -48.203125 25.828125 -48.925781 24.609375 -49.5 C 23.398438 -50.082031 22.242188 -50.375 21.140625 -50.375 C 19.429688 -50.375 18.050781 -49.890625 17 -48.921875 C 15.957031 -47.960938 15.4375 -46.632812 15.4375 -44.9375 C 15.4375 -43.550781 16.054688 -42.296875 17.296875 -41.171875 C 18.535156 -40.046875 20.78125 -39.375 24.03125 -39.15625 C 27.5625 -38.925781 30.769531 -38.015625 33.65625 -36.421875 C 36.550781 -34.828125 38.863281 -32.597656 40.59375 -29.734375 C 42.332031 -26.867188 43.203125 -23.453125 43.203125 -19.484375 C 43.203125 -15.523438 42.222656 -11.988281 40.265625 -8.875 C 38.304688 -5.769531 35.742188 -3.332031 32.578125 -1.5625 C 29.410156 0.195312 26.015625 1.078125 22.390625 1.078125 C 18.859375 1.078125 15.382812 0.375 11.96875 -1.03125 C 8.5625 -2.4375 5.398438 -4.734375 2.484375 -7.921875 L 13.046875 -15.6875 C 14.484375 -13.925781 15.941406 -12.742188 17.421875 -12.140625 C 18.910156 -11.535156 20.566406 -11.234375 22.390625 -11.234375 C 24.472656 -11.234375 26.242188 -11.960938 27.703125 -13.421875 C 29.171875 -14.878906 29.90625 -16.597656 29.90625 -18.578125 C 29.90625 -21.054688 29.101562 -23.039062 27.5 -24.53125 C 25.90625 -26.019531 23.617188 -26.925781 20.640625 -27.25 Z M 20.640625 -27.25 "/></g></g></g><g fill="#f4f6fc" fill-opacity="1"><g transform="translate(191.263477, 64.237903)"><g><path d="M 5.859375 -61.53125 L 18.671875 -61.53125 L 18.671875 -38.484375 L 46.90625 -38.484375 L 46.90625 -61.53125 L 59.71875 -61.53125 L 59.71875 0 L 46.90625 0 L 46.90625 -27.015625 L 18.671875 -27.015625 L 18.671875 0 L 5.859375 0 Z M 5.859375 -61.53125 "/></g></g></g></g></g></svg>